<svg width="150" height="290" viewBox="0 0 150 290" fill="none" xmlns="http://www.w3.org/2000/svg">
<path d="M238.752 54.2132C235.23 57.0929 234.606 62.3506 236.975 66.7755C232.027 71.8117 226.079 77.2283 219.041 82.5885C215.121 85.5628 211.253 88.2289 207.532 90.6021C206.989 89.9397 206.43 89.2786 205.863 88.6254C203.103 85.4476 200.162 82.5222 197.088 79.8308C197.627 77.0579 198.528 73.8528 200.048 70.4566C202.661 64.5576 206.151 60.2387 209.154 57.2597C213.865 59.5307 219.286 58.5244 221.921 54.6239C224.895 50.2276 223.23 43.8287 218.185 40.3437C213.149 36.8498 206.66 37.567 203.686 41.9633C200.983 45.9703 202.126 51.639 206.166 55.2581C204.788 59.2965 202.167 64.6522 197.147 69.2379C194.677 71.5028 192.157 73.0825 189.969 74.1965C184.707 70.4434 179.125 67.3169 173.311 64.8461C173.748 60.8853 174.479 56.4529 175.724 51.7068C177.517 44.8262 179.905 38.9441 182.304 34.1259C187.293 34.9278 192.037 32.5149 193.502 28.1154C195.189 23.0673 191.884 17.3065 186.141 15.2498C180.4 13.194 174.369 15.6376 172.687 20.6914C171.225 25.0764 173.521 30.0068 177.919 32.5628C176.918 37.9204 175.301 44.0635 172.636 50.6046C170.834 55.0587 168.826 58.999 166.85 62.386C161.148 60.45 155.293 59.1118 149.377 58.387C146.802 53.0791 144.395 46.3599 143.354 38.4293C142.397 31.0006 142.881 24.5502 143.732 19.5727C148.774 18.8121 152.587 14.9395 152.557 10.2018C152.534 4.82631 147.611 0.375192 141.546 0.271209C135.493 0.143892 130.604 4.39985 130.637 9.76835C130.667 14.506 134.484 18.5331 139.557 19.486C140.45 24.3699 141.04 30.8771 140.113 38.3679C139.09 46.6333 136.583 53.2273 134.304 57.8331C127.46 58.1779 120.669 59.3228 114.069 61.2954C113.057 58.7468 112.263 55.9878 111.781 53.0167C111.41 50.6522 111.271 48.4086 111.29 46.3275C116.203 44.6989 119.308 40.1042 118.389 35.3755C117.379 30.0807 111.732 26.6033 105.786 27.6139C99.8394 28.6236 95.8458 33.7266 96.8617 39.028C97.7619 43.6796 102.236 46.9315 107.341 46.963C108.157 49.1202 108.898 51.4493 109.522 53.938C110.253 56.7899 110.766 59.5569 111.095 62.2419C110.44 62.4647 109.8 62.6871 109.162 62.9305C101.64 65.6667 94.4349 69.5254 87.7595 74.51C84.2572 72.5613 80.6245 70.1859 76.9877 67.2707C69.5738 61.3159 64.4713 54.9608 61.0544 49.8274C64.1143 45.8994 64.2958 40.5383 61.2085 36.9834C57.6507 32.8866 51.105 32.7454 46.5851 36.6706C42.0561 40.6038 41.2695 47.1128 44.8273 51.2095C47.9674 54.8253 53.4373 55.3508 57.7881 52.7247C62.5626 56.5626 68.6339 62.4653 73.7873 70.9447C76.0444 74.6872 77.7863 78.3715 79.1475 81.894C73.4315 87.4669 68.6844 93.6758 64.8883 100.334C63.0561 99.7554 61.2433 99.0513 59.3012 98.0508C55.4613 96.0638 52.4719 93.6729 50.2067 91.4888C52.103 86.5344 50.4849 81.0008 46.2046 78.5805C41.4933 75.9221 35.3465 78.0478 32.4729 83.334C29.6085 88.6121 31.0993 95.0505 35.8205 97.7019C39.8908 99.9911 45.017 98.7189 48.1873 94.9365C51.2322 96.2662 54.5322 97.9818 57.9127 100.251C59.7154 101.442 61.3694 102.701 62.9211 103.99C59.7109 110.308 57.3426 116.969 55.7974 123.822C52.1038 124.106 48.1229 124.17 43.881 123.878C34.1167 123.203 25.9802 120.88 19.9655 118.584C20.0042 113.501 16.8728 108.991 12.2796 108C7.02006 106.868 1.83744 110.768 0.702312 116.709C-0.422863 122.644 2.92119 128.376 8.1708 129.515C12.8273 130.505 17.4 127.581 19.1909 122.782C25.1351 122.95 33.5975 124.007 42.904 128.01C47.1651 129.836 50.885 131.98 54.1148 134.187C53.9907 135.427 53.8752 136.696 53.7986 137.954C53.4425 144.276 53.7528 150.665 54.7628 156.992C52.8701 157.856 50.8415 158.674 48.6714 159.403C41.614 161.771 35.2135 162.535 30.2233 162.691C28.2486 157.909 23.5641 154.968 18.9728 155.915C13.7649 156.983 10.6386 162.679 11.9964 168.632C13.3434 174.591 18.6695 178.547 23.8948 177.463C28.4754 176.522 31.4412 172.006 31.1719 166.882C35.8054 165.061 41.9745 163.238 49.4036 162.589C51.6223 162.395 53.7467 162.333 55.7938 162.348C57.9715 172.141 61.8444 181.691 67.4356 190.546C64.5583 193.522 61.3119 196.571 57.6059 199.589C52.3154 203.9 47.1305 207.318 42.3682 210.042C38.7272 206.034 33.0899 204.928 29.1359 207.679C24.7825 210.708 24.1208 217.231 27.6499 222.254C31.1882 227.269 37.5744 228.886 41.9171 225.864C45.7907 223.168 46.7249 217.714 44.4074 212.998C48.6459 209.468 53.6526 205.79 59.4964 202.283C63.5491 199.848 67.4758 197.822 71.2414 196.09C72.6369 197.992 74.1316 199.842 75.7082 201.657C79.4521 205.969 83.5058 209.843 87.8225 213.264C86.4017 218.6 83.9565 225.376 79.5198 232.496C75.6327 238.736 71.3399 243.439 67.6362 246.865C63.1102 244.42 57.7443 245.103 54.8927 248.773C51.6499 252.951 52.9076 259.435 57.7186 263.241C62.5305 267.048 69.0686 266.738 72.3114 262.559C75.1246 258.937 74.5524 253.612 71.2378 249.777C74.0088 245.092 77.5519 239.876 82.0949 234.539C87.3117 228.409 92.5944 223.592 97.3173 219.845C104.033 223.908 111.191 226.985 118.553 229.1C118.112 231.598 117.493 234.224 116.588 236.962C114.869 242.195 112.596 246.494 110.364 249.937C105.495 248.388 100.391 250.109 98.3085 254.278C95.9464 259.028 98.4191 265.177 103.847 267.996C107.256 269.763 111.026 269.808 113.944 268.408C115.668 267.591 117.098 266.267 117.98 264.498C118.234 263.979 118.443 263.426 118.58 262.865C119.688 258.682 117.533 253.876 113.238 251.236C114.759 247.306 116.767 242.979 119.492 238.481C121.254 235.585 123.08 233.002 124.895 230.684C129.177 231.594 133.519 232.167 137.85 232.414C138.258 232.442 138.676 232.462 139.071 232.474C140.639 237.489 142.082 243.983 142.364 251.593C142.637 259.045 141.737 265.424 140.599 270.366C135.546 270.8 131.525 274.378 131.225 279.067C130.876 284.42 135.5 289.191 141.553 289.724C147.581 290.265 152.772 286.356 153.111 281.011C153.416 276.363 149.966 272.151 145.094 270.783C144.703 265.427 144.693 259.014 145.599 251.888C146.586 244.226 148.384 237.627 150.289 232.259C158.37 231.568 166.376 229.738 174.025 226.76C175.753 229.211 177.47 231.981 179.038 235.097C182.461 241.878 184.232 248.159 185.172 253.097C180.751 255.586 178.569 260.562 180.219 265.027C182.101 270.089 188.222 272.581 193.894 270.592C199.557 268.61 202.628 262.887 200.759 257.802C199.125 253.394 194.294 250.929 189.327 251.684C186.797 246.945 184.17 241.024 182.073 234.035C181.06 230.619 180.299 227.363 179.738 224.282C185.321 221.618 190.668 218.313 195.69 214.321C199.845 217.518 204.254 221.304 208.683 225.778C215.277 232.43 220.329 239.003 224.151 244.732C221.113 248.649 220.941 254.002 224.021 257.549C227.579 261.646 234.124 261.786 238.662 257.845C243.182 253.919 243.96 247.419 240.402 243.323C237.335 239.79 232.033 239.2 227.736 241.63C222.544 236.888 216.802 230.94 211.103 223.677C207.262 218.774 204.018 213.987 201.271 209.497C206.159 204.906 210.371 199.852 213.902 194.456C214.919 194.815 215.95 195.209 216.99 195.632C223.869 198.408 229.3 201.894 233.289 204.994C231.714 209.765 233.326 214.978 237.424 217.317C242.108 220.018 248.275 217.934 251.191 212.678C254.093 207.425 252.655 200.973 247.962 198.281C243.802 195.889 238.477 197.264 235.294 201.271C230.884 199.717 224.832 196.842 218.976 191.519C218.246 190.863 217.556 190.198 216.905 189.521C220.511 183.143 223.231 176.352 225.068 169.336C230.09 169.236 235.676 169.471 241.716 170.266C251.008 171.484 258.956 173.739 265.275 176.034C265.267 181.079 268.39 185.542 272.952 186.534C278.218 187.655 283.39 183.761 284.525 177.82C285.652 171.888 282.311 166.159 277.057 165.016C272.512 164.043 268.021 166.821 266.163 171.432C259.32 170.82 251.223 169.556 242.331 167.082C236.585 165.482 231.363 163.619 226.701 161.663C227.212 158.581 227.558 155.475 227.748 152.337C228.04 147.213 227.896 142.049 227.286 136.921C232.336 134.565 238.474 132.208 245.633 130.454C252.531 128.751 258.846 127.981 264.226 127.702C266.168 132.391 270.734 135.325 275.272 134.463C280.509 133.485 283.732 127.845 282.485 121.872C281.233 115.893 275.967 111.858 270.73 112.836C266.156 113.694 263.102 118.126 263.261 123.216C258.469 124.928 252.286 126.587 244.965 127.25C237.364 127.942 230.692 127.397 225.428 126.5C224.271 121.681 222.7 116.921 220.712 112.272C222.707 110.659 224.915 109.051 227.317 107.538C233.52 103.632 239.453 101.26 244.33 99.794C247.398 103.935 252.62 105.632 256.782 103.582C261.54 101.24 263.153 94.9085 260.385 89.4345C257.608 83.9675 251.512 81.4299 246.744 83.7792C242.567 85.8298 240.812 90.9844 242.335 95.928C238.347 98.8429 232.844 102.153 225.834 104.613C223.176 105.536 220.587 106.244 218.127 106.768C216.034 102.679 213.609 98.7063 210.825 94.8924C213.952 91.6875 217.378 88.4021 221.143 85.1195C227.773 79.327 234.243 74.5668 240.175 70.681C244.059 73.8625 249.333 74.2727 252.852 71.4085C256.951 68.0503 257.122 61.4784 253.217 56.7415C249.32 51.9965 242.843 50.8639 238.752 54.2132Z" fill="#FFE1E1"/>
</svg>
