<svg width="146" height="297" viewBox="0 0 146 297" fill="none" xmlns="http://www.w3.org/2000/svg">
<g filter="url(#filter0_d_1_655)">
<path d="M131.935 139.427C127.488 139.294 123.656 142.783 122.568 147.578C115.684 148.124 107.819 148.31 99.1848 147.754C94.3828 147.436 89.8174 146.923 85.5477 146.288C85.5713 145.449 85.5831 144.602 85.5831 143.754C85.5831 139.63 85.2875 135.577 84.7434 131.611C86.9197 129.907 89.64 128.114 92.9399 126.578C98.6526 123.894 103.999 122.94 108.126 122.666C110.149 127.372 114.797 130.111 119.244 128.918C124.259 127.576 127.133 121.774 125.643 115.955C124.165 110.135 118.913 106.497 113.898 107.839C109.333 109.066 106.542 113.994 107.204 119.266C103.597 121.368 98.2268 123.646 91.5797 123.813C88.3035 123.902 85.4294 123.452 83.0993 122.87C81.6209 116.714 79.5038 110.815 76.7953 105.252C79.6576 102.603 83.0402 99.794 87.0024 97.0826C92.7388 93.1447 98.2741 90.3277 103.135 88.3048C106.305 92.103 111.355 93.3658 115.258 91.0527C119.741 88.4019 120.995 82.0173 118.073 76.8068C115.152 71.5977 109.132 69.5309 104.649 72.189C100.758 74.4936 99.2912 79.6154 100.9 84.3316C96.7247 87.6514 91.5915 91.157 85.4294 94.2837C81.2424 96.4208 77.2329 98.0455 73.6019 99.2817C70.6332 94.1866 67.1678 89.4352 63.2647 85.0991C64.7668 79.5183 67.2978 73.0013 71.6149 66.4662C75.6717 60.356 80.1661 55.896 83.9864 52.7607C88.197 55.437 93.4958 55.0218 96.5118 51.498C99.9418 47.5067 99.1611 41.0516 94.7495 37.0786C90.3615 33.0958 84.0219 33.103 80.6038 37.0955C77.5878 40.6193 77.8243 46.0507 80.9586 50.014C78.4867 54.2008 74.7491 59.3931 69.2611 64.3388C63.2054 69.7957 57.1261 73.0633 52.4897 75.0061C47.2146 70.8642 41.4665 67.3489 35.328 64.5683C36.2151 62.0329 37.3978 59.4817 38.9472 56.9742C40.1891 54.9865 41.5256 53.238 42.874 51.7105C47.5458 53.6618 52.7855 52.2581 55.1391 48.1696C57.7885 43.604 55.8487 37.404 50.8102 34.3319C45.7717 31.2586 39.5504 32.4679 36.9011 37.0421C34.5829 41.0613 35.8011 46.3409 39.5505 49.6437C38.7699 51.7638 37.8236 53.9629 36.6882 56.2044C35.399 58.7835 34.0033 61.1599 32.5249 63.3577C31.898 63.1015 31.283 62.8549 30.6561 62.6255C23.3467 59.8169 15.5523 58.0428 7.42683 57.4417C6.09032 53.7503 4.93123 49.6595 4.11512 45.1667C2.45927 35.999 2.76686 28.0201 3.53565 22.0277C8.31396 21.0879 11.8858 17.2387 11.8858 12.6257C11.8858 7.30967 7.14304 3.00018 1.28842 3.00018C-4.57804 3.00018 -9.3328 7.30967 -9.3328 12.6257C-9.3328 17.3176 -5.63076 21.2203 -0.734164 22.0727C0.330313 27.9789 1.02821 36.2455 -0.603992 45.8285C-1.3373 50.0469 -2.41365 53.8913 -3.66736 57.3714C-11.4617 57.8219 -18.9485 59.3651 -26.0214 61.8519C-27.0031 60.2467 -27.8901 58.5613 -28.6826 56.5736C-30.2438 52.6369 -30.918 48.948 -31.19 45.8771C-26.6128 43.4304 -24.2591 38.2976 -25.8677 33.7575C-27.6418 28.7644 -33.5437 26.3882 -39.0554 28.4524C-44.5552 30.5167 -47.583 36.237 -45.797 41.2313C-44.2595 45.5395 -39.6585 47.8915 -34.892 47.1302C-33.4964 50.0699 -32.1598 53.4589 -31.119 57.3094C-30.5513 59.3481 -30.1373 61.342 -29.818 63.2921C-36.2403 65.904 -42.2605 69.31 -47.7958 73.3863C-50.7054 71.2237 -53.686 68.7138 -56.631 65.7728C-63.4082 59.0009 -67.9264 52.0552 -70.8951 46.4927C-67.607 42.7576 -67.0274 37.41 -69.7833 33.7259C-72.9412 29.51 -79.2689 29.0655 -83.9172 32.7314C-88.5535 36.3985 -89.7599 42.7868 -86.6138 47.0015C-83.8107 50.7257 -78.5593 51.5004 -74.1594 49.101C-69.8779 53.0437 -64.3071 59.2619 -60.0019 68.2013C-58.0267 72.2898 -56.6547 76.2653 -55.6848 79.9725C-56.5719 80.8103 -57.4708 81.6748 -58.3342 82.5563C-62.6513 87.0042 -66.5189 91.9293 -69.8306 97.2587C-71.7821 96.6819 -73.8046 95.9837 -75.8744 95.1289C-82.6043 92.347 -87.8202 88.8002 -91.6051 85.7099C-89.9965 80.9038 -91.5696 75.7188 -95.5673 73.47C-100.097 70.914 -106.058 73.1191 -108.873 78.3951C-111.7 83.6687 -110.304 90.0169 -105.751 92.5717C-101.765 94.8181 -96.679 93.3828 -93.5921 89.4194C-89.003 91.049 -83.2785 93.6633 -77.3766 97.9557C-75.6143 99.238 -74.0057 100.557 -72.5036 101.883C-77.1755 110.526 -80.4399 120.078 -81.9893 130.22C-86.0225 130.573 -90.3749 130.743 -95.0468 130.595C-101.718 130.385 -107.738 129.582 -113.001 128.538C-113.119 123.234 -116.573 118.795 -121.257 118.29C-126.413 117.734 -131.085 122.134 -131.7 128.117C-132.304 134.099 -128.625 139.399 -123.48 139.952C-118.891 140.447 -114.704 137.013 -113.391 132.035C-107.998 132.147 -101.942 132.642 -95.3781 133.802C-90.8245 134.605 -86.6257 135.628 -82.7344 136.766C-82.9236 139.07 -83.0064 141.398 -83.0064 143.754C-83.0064 149.348 -82.4978 154.819 -81.5043 160.122C-85.9751 163.157 -92.1255 166.598 -99.9671 169.015C-106.839 171.133 -113.025 171.855 -117.957 172.01C-119.731 167.294 -124.131 164.352 -128.59 165.234C-133.664 166.242 -136.893 171.846 -135.781 177.752C-134.669 183.66 -129.642 187.63 -124.568 186.623C-120.169 185.751 -117.176 181.444 -117.164 176.477C-112.114 174.792 -106.153 173.21 -99.3758 172.18C-91.5932 170.997 -84.6032 170.827 -78.713 171.09C-76.3594 178.409 -73.0476 185.284 -68.9671 191.578C-70.895 193.143 -73.0358 194.688 -75.4605 196.131C-80.085 198.898 -84.5204 200.618 -88.3762 201.73C-90.9782 197.457 -95.8511 195.451 -100.062 197.198C-104.852 199.194 -106.969 205.331 -104.769 210.903C-103.385 214.4 -100.629 216.855 -97.578 217.694C-95.7802 218.197 -93.8759 218.136 -92.0899 217.394C-91.5695 217.173 -91.061 216.899 -90.5997 216.572C-87.0988 214.19 -85.6085 209.25 -87.0869 204.538C-83.444 202.608 -79.1861 200.697 -74.2895 199.121C-71.1315 198.111 -68.1274 197.372 -65.3006 196.824C-62.7222 200.248 -59.8836 203.461 -56.8439 206.426C-56.56 206.709 -56.2644 206.992 -55.9805 207.255C-58.0385 211.972 -61.1374 217.703 -65.8092 223.513C-70.3865 229.201 -75.1411 233.341 -79.1507 236.267C-83.1602 233.341 -88.4235 233.405 -91.6524 236.681C-95.3426 240.416 -94.9877 246.916 -90.8599 251.198C-86.7558 255.471 -80.4162 255.915 -76.7378 252.178C-73.5326 248.936 -73.3789 243.604 -76.0992 239.463C-72.9531 235.249 -68.8489 230.499 -63.6093 225.809C-57.9675 220.776 -52.4086 217.05 -47.5593 214.303C-41.1488 218.983 -34.0641 222.771 -26.5063 225.483C-26.802 228.405 -27.3106 231.558 -28.1503 234.87C-29.9718 242.085 -32.6921 247.869 -35.1641 252.126C-40.0252 251.127 -44.8272 253.406 -46.4712 257.769C-48.3282 262.723 -45.4067 268.498 -39.9424 270.67C-34.4899 272.843 -28.5525 270.582 -26.6719 265.619C-25.0515 261.31 -27.0386 256.382 -31.19 253.75C-30.0191 248.619 -28.1622 242.552 -25.2289 236.035C-23.786 232.857 -22.2602 229.96 -20.699 227.32C-14.868 228.936 -8.80056 229.926 -2.53197 230.199C-1.5148 235.233 -0.686872 240.866 -0.28474 247.021C0.318462 256.178 -0.166367 264.286 -1.01796 270.979C-5.77262 271.925 -9.3328 275.774 -9.3328 280.376C-9.3328 285.692 -4.58987 290 1.28842 290C7.14305 290 11.8858 285.692 11.8858 280.376C11.8858 275.792 8.34936 271.95 3.61835 270.987C2.8259 264.144 2.40011 256.055 2.84956 247.021C3.15707 240.927 3.83124 235.302 4.68282 230.216C11.2353 229.96 17.5867 228.928 23.6542 227.204C24.1746 228.122 24.6833 229.077 25.18 230.058C28.4799 236.53 30.254 242.598 31.2121 247.454C26.9896 249.971 24.837 254.863 26.3628 259.226C28.0896 264.232 33.9797 266.652 39.5031 264.638C45.0147 262.616 48.0899 256.92 46.3513 251.914C44.8137 247.472 39.9998 245.069 35.0796 245.988C32.8205 242.005 30.1948 235.991 29.2841 228.291C29.1658 227.337 29.0831 226.402 29.0358 225.483C35.7893 223.081 42.1525 219.805 48.0072 215.795C51.7801 218.947 55.7541 222.709 59.7045 227.178C65.7839 234.048 70.2073 240.822 73.4008 246.579C70.16 250.306 69.6041 255.613 72.3363 259.278C75.5061 263.49 81.822 263.932 86.4702 260.267C91.1066 256.603 92.3131 250.218 89.167 245.998C86.4348 242.359 81.337 241.528 77.0082 243.745C72.3481 238.897 67.1796 232.76 62.2002 225.218C58.9831 220.343 56.3219 215.611 54.1338 211.168C56.4875 209.216 58.7347 207.141 60.8873 204.942C64.3882 201.339 67.5935 197.427 70.4321 193.242C75.6717 194.744 81.7155 196.943 88.126 200.244C94.3118 203.416 99.4686 206.903 103.62 210.153C102.047 214.869 103.537 219.972 107.441 222.25C111.935 224.891 117.932 222.789 120.841 217.571C123.751 212.343 122.45 205.975 117.955 203.334C114.028 201.031 108.931 202.347 105.785 206.215C101.148 204.403 95.5183 201.658 89.6873 197.445C83.6316 193.074 79.0544 188.384 75.7427 184.34C77.9781 180.032 79.8704 175.501 81.3843 170.785C83.8918 170.874 86.553 171.103 89.297 171.527C96.3817 172.622 102.284 174.679 106.825 176.728C106.435 181.762 109.203 186.371 113.591 187.528C118.606 188.853 123.857 185.205 125.324 179.378C126.778 173.55 123.904 167.757 118.878 166.432C114.478 165.265 109.877 167.951 107.831 172.586C103.017 172.18 96.8311 171.093 90.0776 168.41C87.5228 167.385 85.1574 166.246 83.0047 165.054C84.0811 160.683 84.838 156.187 85.2283 151.578C89.5927 151.216 94.2291 150.986 99.1139 150.977C107.724 150.951 115.554 151.586 122.426 152.522C123.254 157.371 126.885 161.062 131.32 161.204C136.501 161.354 140.841 156.602 140.995 150.589C141.161 144.576 137.104 139.577 131.935 139.427Z" fill="#128E5A" fill-opacity="0.74"/>
</g>
<defs>
<filter id="filter0_d_1_655" x="-141" y="0.000183105" width="287" height="297" filterUnits="userSpaceOnUse" color-interpolation-filters="sRGB">
<feFlood flood-opacity="0" result="BackgroundImageFix"/>
<feColorMatrix in="SourceAlpha" type="matrix" values="0 0 0 0 0 0 0 0 0 0 0 0 0 0 0 0 0 0 127 0" result="hardAlpha"/>
<feOffset dy="2"/>
<feGaussianBlur stdDeviation="2.5"/>
<feColorMatrix type="matrix" values="0 0 0 0 0 0 0 0 0 0 0 0 0 0 0 0 0 0 0.1 0"/>
<feBlend mode="normal" in2="BackgroundImageFix" result="effect1_dropShadow_1_655"/>
<feBlend mode="normal" in="SourceGraphic" in2="effect1_dropShadow_1_655" result="shape"/>
</filter>
</defs>
</svg>
