<svg width="74" height="73" viewBox="0 0 74 73" fill="none" xmlns="http://www.w3.org/2000/svg">
<path d="M52.1431 36.4549C52.1431 37.6702 53.1282 38.6554 54.3436 38.6554H59.3482C61.8959 38.6554 64.4129 39.2394 66.6875 40.3871C67.3656 40.7293 68.1445 40.9008 68.9679 40.8459C71.1495 40.7002 72.9182 38.9259 73.0574 36.7438C73.2209 34.1822 71.1921 32.054 68.6656 32.054C67.9812 32.054 67.3334 32.2102 66.756 32.489C64.4382 33.608 61.9211 34.2545 59.3473 34.2545H54.3436C53.1283 34.2544 52.1431 35.2396 52.1431 36.4549Z" fill="#FC312F"/>
<path d="M22.3247 50.7418C21.6142 50.0314 20.4623 50.0314 19.7519 50.7418L16.8261 53.6676C15.3367 55.157 13.5239 56.287 11.5233 56.9458C10.9268 57.1422 10.3711 57.4972 9.92201 58.0107C8.73181 59.3712 8.73509 61.4425 9.92927 62.7996C11.3312 64.3928 13.7615 64.4509 15.2385 62.9739C15.6385 62.5739 15.9258 62.1038 16.1006 61.6033C16.8013 59.5941 17.895 57.7447 19.3996 56.2401L22.3248 53.3149C23.0351 52.6042 23.0351 51.4523 22.3247 50.7418Z" fill="#FC312F"/>
<path d="M48.7141 24.3537C49.4576 25.0972 50.6629 25.0972 51.4064 24.3537L54.468 21.2922C56.0266 19.7336 57.9236 18.5512 60.017 17.8617C60.6412 17.6561 61.2227 17.2847 61.6927 16.7473C62.9381 15.3235 62.9347 13.1562 61.685 11.7361C60.2179 10.069 57.6748 10.0082 56.1293 11.5537C55.7106 11.9724 55.41 12.4642 55.2272 12.988C54.4938 15.0904 53.3495 17.0257 51.7751 18.6002L48.714 21.6613C47.9706 22.4049 47.9706 23.6102 48.7141 24.3537Z" fill="#FC312F"/>
<path d="M36.611 51.9863C35.3958 51.9863 34.4105 52.9715 34.4105 54.1869V59.1915C34.4105 61.7392 33.8265 64.2561 32.6789 66.5307C32.3367 67.2088 32.1651 67.9878 32.2201 68.8111C32.3657 70.9928 34.1401 72.7614 36.3221 72.9007C38.8838 73.0641 41.012 71.0353 41.012 68.5088C41.012 67.8244 40.8558 67.1767 40.5769 66.5992C39.4579 64.2815 38.8114 61.7644 38.8114 59.1906V54.1869C38.8116 52.9716 37.8263 51.9863 36.611 51.9863Z" fill="#FFA2A1"/>
<path d="M40.5797 66.5994C39.4607 64.2816 38.8142 61.7645 38.8142 59.1908V54.1869C38.8142 52.9716 37.829 51.9863 36.6136 51.9863C35.3982 51.9863 34.4131 52.9715 34.4131 54.1869V59.1908C34.4131 61.7645 35.0596 64.2815 36.1786 66.5994C36.4574 67.1768 36.6136 67.8246 36.6136 68.509C36.6136 70.1367 35.7296 71.5567 34.4162 72.3181C34.986 72.6495 35.6349 72.8568 36.3248 72.9008C38.8865 73.0643 41.0147 71.0355 41.0147 68.509C41.0147 67.8246 40.8585 67.1768 40.5797 66.5994Z" fill="#FC312F"/>
<path d="M20.19 27.3669C24.16 27.3669 27.3784 24.1486 27.3784 20.1786C27.3784 16.2086 24.16 12.9902 20.19 12.9902C16.22 12.9902 13.0017 16.2086 13.0017 20.1786C13.0017 24.1486 16.22 27.3669 20.19 27.3669Z" fill="#FF807E"/>
<path d="M20.1876 12.9902C19.4199 12.9902 18.6808 13.1118 17.9871 13.3347C20.8804 14.2643 22.9748 16.9764 22.9748 20.1786C22.9748 23.3808 20.8804 26.0928 17.9871 27.0224C18.6807 27.2453 19.4198 27.3669 20.1876 27.3669C24.1576 27.3669 27.3759 24.1486 27.3759 20.1786C27.3759 16.2085 24.1575 12.9902 20.1876 12.9902Z" fill="#FC312F"/>
<path d="M36.6127 59.927C49.5759 59.927 60.0847 49.4182 60.0847 36.4549C60.0847 23.4917 49.5759 12.9829 36.6127 12.9829C23.6494 12.9829 13.1406 23.4917 13.1406 36.4549C13.1406 49.4182 23.6494 59.927 36.6127 59.927Z" fill="#FFBFBE"/>
<path d="M36.6136 12.9829C35.8714 12.9829 35.1378 13.0189 34.4131 13.0864C46.3443 14.196 55.6847 24.234 55.6847 36.4549C55.6847 48.6759 46.3444 58.7138 34.4132 59.8234C35.1378 59.8908 35.8716 59.927 36.6138 59.927C49.5771 59.927 60.0858 49.4183 60.0858 36.4549C60.0858 23.4916 49.5769 12.9829 36.6136 12.9829Z" fill="#FFA2A2"/>
<path d="M45.4121 33.1994C48.0453 33.1994 50.1799 31.0648 50.1799 28.4316C50.1799 25.7984 48.0453 23.6638 45.4121 23.6638C42.7789 23.6638 40.6443 25.7984 40.6443 28.4316C40.6443 31.0648 42.7789 33.1994 45.4121 33.1994Z" fill="#FFA2A1"/>
<path d="M45.4154 23.6638C44.6214 23.6638 43.8733 23.8591 43.2148 24.2024C44.7401 24.9977 45.7821 26.5925 45.7821 28.4316C45.7821 30.2707 44.7401 31.8656 43.2148 32.6608C43.8733 33.0041 44.6214 33.1994 45.4154 33.1994C48.0486 33.1994 50.1832 31.0648 50.1832 28.4316C50.1832 25.7984 48.0486 23.6638 45.4154 23.6638Z" fill="#FF807E"/>
<path d="M28.2201 48.8515C30.0025 48.8515 31.4475 47.4066 31.4475 45.6241C31.4475 43.8417 30.0025 42.3967 28.2201 42.3967C26.4376 42.3967 24.9927 43.8417 24.9927 45.6241C24.9927 47.4066 26.4376 48.8515 28.2201 48.8515Z" fill="#FF807E"/>
<path d="M52.5804 58.264C55.011 58.264 56.9813 56.2937 56.9813 53.8631C56.9813 51.4325 55.011 49.4622 52.5804 49.4622C50.1498 49.4622 48.1794 51.4325 48.1794 53.8631C48.1794 56.2937 50.1498 58.264 52.5804 58.264Z" fill="#FC312F"/>
<path d="M52.5809 49.4622C51.7791 49.4622 51.0279 49.6778 50.3804 50.0524C51.6955 50.8134 52.5809 52.2344 52.5809 53.8632C52.5809 55.492 51.6955 56.9129 50.3804 57.6741C51.0279 58.0487 51.7791 58.2643 52.5809 58.2643C55.0116 58.2643 56.9819 56.2939 56.9819 53.8634C56.9819 51.4329 55.0116 49.4622 52.5809 49.4622Z" fill="#FF807E"/>
<path d="M21.0808 36.4549C21.0808 37.6702 20.0957 38.6554 18.8803 38.6554H13.8757C11.3279 38.6554 8.81099 39.2394 6.5364 40.3871C5.85828 40.7293 5.07934 40.9008 4.25597 40.8459C2.07437 40.7002 0.305729 38.9259 0.166459 36.7438C0.00298141 34.1822 2.03179 32.054 4.55829 32.054C5.24267 32.054 5.89046 32.2102 6.4679 32.489C8.78564 33.608 11.3027 34.2545 13.8765 34.2545H18.8804C20.0955 34.2544 21.0808 35.2396 21.0808 36.4549Z" fill="#FC312F"/>
<path d="M36.6109 20.9236C37.8262 20.9236 38.8115 19.9384 38.8115 18.723V13.7184C38.8115 11.1707 39.3954 8.65376 40.5431 6.37917C40.8853 5.70105 41.0568 4.92211 41.0019 4.09874C40.8562 1.91714 39.0819 0.148502 36.8998 0.00923265C34.3382 -0.154245 32.21 1.87456 32.21 4.40106C32.21 5.08545 32.3662 5.73323 32.645 6.31068C33.764 8.62842 34.4105 11.1455 34.4105 13.7193V18.7232C34.4104 19.9383 35.3956 20.9236 36.6109 20.9236Z" fill="#FFA2A1"/>
<path d="M41.0035 4.09873C40.8578 1.91713 39.0834 0.14849 36.9014 0.00922096C35.99 -0.0490216 35.1343 0.171417 34.4089 0.591931C35.6413 1.30864 36.5027 2.60692 36.6024 4.09873C36.6573 4.9221 36.4857 5.70104 36.1435 6.37916C34.9959 8.65375 34.4119 11.1707 34.4119 13.7184V18.723C34.4119 19.9383 35.3971 20.9236 36.6125 20.9236C37.8279 20.9236 38.813 19.9384 38.813 18.723V13.7184C38.813 11.1707 39.397 8.65375 40.5446 6.37916C40.8868 5.70104 41.0586 4.9221 41.0035 4.09873Z" fill="#FC312F"/>
<path d="M68.6699 32.0564C67.9859 32.0564 67.3385 32.2125 66.7614 32.4912C66.6593 32.5404 66.5562 32.5877 66.4534 32.6351C67.8549 33.4374 68.7727 34.9886 68.6606 36.7436C68.5648 38.2445 67.6975 39.5522 66.4554 40.2693C66.5345 40.3076 66.6141 40.3451 66.6927 40.3847C67.3706 40.7266 68.149 40.8982 68.9719 40.8432C71.1522 40.6975 72.9198 38.9243 73.059 36.7436C73.2224 34.1833 71.1948 32.0564 68.6699 32.0564Z" fill="#FF807E"/>
</svg>
