<svg width="158" height="99" viewBox="0 0 158 99" fill="none" xmlns="http://www.w3.org/2000/svg">
<path d="M101.78 88.5057C115.117 95.3184 164.374 110.448 156.79 79.1352C154.89 71.3374 149.346 64.7646 143.033 60.3828C135.804 55.3485 128.68 53.6074 122.36 47.1749C114.66 39.4267 106.386 32.4247 97.645 26.2594C79.6963 13.3608 59.8278 2.32974 38.8883 0.678103C24.2028 -0.47458 1.84368 6.84889 0.115422 25.7376C-2.40804 53.2365 38.4726 47.1134 53.022 52.9585C66.8237 58.483 77.3216 71.544 89.59 80.8645C93.4646 83.8016 97.5454 86.3596 101.78 88.5057Z" fill="url(#paint0_linear_1_1150)"/>
<defs>
<linearGradient id="paint0_linear_1_1150" x1="157.736" y1="78.2948" x2="-18.8229" y2="53.4189" gradientUnits="userSpaceOnUse">
<stop stop-color="#FFE1E2"/>
<stop offset="1" stop-color="#FFF8F8"/>
</linearGradient>
</defs>
</svg>
