<svg width="941" height="907" viewBox="0 0 941 907" fill="none" xmlns="http://www.w3.org/2000/svg">
<g opacity="0.62">
<path d="M403.319 757.925C365.696 774.086 327.219 782.929 285.225 777.756C238.418 771.986 195.734 735.038 170.5 697.06C161.124 682.954 153.353 667.015 153.127 650.082C152.62 610.965 189.165 604.204 220.839 608.469C238.694 610.865 255.402 617.88 271.922 624.83C299.349 636.378 330.931 640.876 355.944 657.731C364.339 663.405 370.825 670.456 380.404 674.358C395.305 680.431 412.007 682.668 427.258 688.086C440.281 692.739 455.027 700.828 455.946 714.621C456.871 728.767 442.701 738.746 430.1 745.224C421.183 749.836 412.283 754.091 403.319 757.925Z" fill="url(#paint0_linear_1_1602)"/>
<path d="M228.723 264.325C285.746 167.226 413.773 121.377 521.805 149.432C573.899 162.969 618.928 195.299 660.724 229.184C697.566 259.048 733.536 291.505 759.96 331.264C778.002 358.402 791.804 391.444 802.052 422.464C817.378 468.91 810.234 530.512 748.87 530.038C734.472 529.929 721.739 525.585 708.043 521.952C696.964 519.005 686.484 521.89 675.113 520.84C646.49 518.203 618.518 509.555 591.914 499.023C537.694 477.536 487.428 446.817 431.915 428.511C386.423 413.532 338.485 407.395 290.686 410.429C270.521 411.713 249.413 414.508 230.789 406.669C184.883 387.33 200.958 326.051 215.358 291.23C219.17 281.956 223.636 272.965 228.723 264.325Z" fill="url(#paint1_linear_1_1602)"/>
<path d="M724.327 246.067C735.328 254.797 777.815 277.815 776.633 247.625C776.328 240.105 772.447 233.037 767.453 227.841C761.739 221.876 755.511 218.958 750.891 211.875C745.245 203.328 738.933 195.36 732.036 188.075C717.921 172.897 701.694 159.082 682.749 153.691C669.461 149.915 647.55 152.513 642.468 169.559C635.063 194.374 673.779 196.305 686.074 204.369C697.741 212 704.977 225.95 714.533 236.787C717.551 240.204 720.83 243.311 724.327 246.067Z" fill="url(#paint2_linear_1_1602)"/>
<path d="M530.326 229.136C553.172 240.654 570.942 258.966 592.021 273.271C627.114 297.085 673.237 299.415 712.715 314.992C752.97 330.887 784.329 357.626 800.358 398.068C821.063 450.268 826.839 513.576 815.785 569.353C803.608 630.749 768.38 673.304 714.791 703.648C661.234 733.974 600.785 750.44 539.853 757.001C533.973 757.639 528.095 758.16 522.188 758.583C389.502 768.019 209.77 732.83 155.271 593.187C154.772 591.911 154.29 590.634 153.805 589.339C148.112 573.757 144.304 557.549 142.464 541.061C135.794 482.62 141.831 417.24 158.798 360.938C170.207 323.035 197.933 289.806 227.847 265.466C269.875 231.272 323.128 219.769 376.404 212.518C415.855 207.15 460.363 203.224 498.831 215.937C509.644 219.544 520.172 223.956 530.326 229.136Z" fill="url(#paint3_linear_1_1602)"/>
</g>
<defs>
<linearGradient id="paint0_linear_1_1602" x1="150.059" y1="655.687" x2="199.076" y2="791.827" gradientUnits="userSpaceOnUse">
<stop stop-color="#FFD8D8"/>
<stop offset="1" stop-color="#FFF8F8"/>
</linearGradient>
<linearGradient id="paint1_linear_1_1602" x1="796.47" y1="310.694" x2="359.853" y2="73.345" gradientUnits="userSpaceOnUse">
<stop stop-color="#FFF8F8"/>
<stop offset="1" stop-color="#FFCFCF"/>
</linearGradient>
<linearGradient id="paint2_linear_1_1602" x1="777.658" y1="247.028" x2="619.938" y2="191.506" gradientUnits="userSpaceOnUse">
<stop stop-color="#FFD7D7"/>
<stop offset="1" stop-color="#FFF9F9"/>
</linearGradient>
<linearGradient id="paint3_linear_1_1602" x1="771.235" y1="681.48" x2="131.067" y2="364.53" gradientUnits="userSpaceOnUse">
<stop stop-color="#FFCFCF"/>
<stop offset="1" stop-color="#FFF8F8"/>
</linearGradient>
</defs>
</svg>
