<svg width="152" height="156" viewBox="0 0 152 156" fill="none" xmlns="http://www.w3.org/2000/svg">
<path opacity="0.1" d="M146.439 75.0752C144.026 74.9745 141.922 76.8232 141.3 79.392C137.56 79.6398 133.289 79.6872 128.606 79.3309C126.001 79.1281 123.526 78.8224 121.212 78.4528C121.231 78.0022 121.243 77.547 121.248 77.0916C121.276 74.8763 121.142 72.6968 120.873 70.5627C122.065 69.6613 123.554 68.7165 125.355 67.9133C128.474 66.509 131.382 66.0325 133.625 65.9126C134.692 68.4545 137.197 69.9565 139.619 69.3455C142.35 68.658 143.948 65.5596 143.178 62.4237C142.414 59.2872 139.587 57.2978 136.856 57.9853C134.369 58.6144 132.822 61.243 133.146 64.0799C131.174 65.1851 128.244 66.3731 124.635 66.4189C122.856 66.4447 121.299 66.1835 120.038 65.8556C119.276 62.5384 118.165 59.3552 116.732 56.3489C118.303 54.9445 120.158 53.4582 122.326 52.0279C125.466 49.9505 128.49 48.474 131.142 47.4196C132.837 49.4812 135.571 50.1932 137.705 48.9765C140.155 47.5823 140.878 44.1606 139.327 41.342C137.775 38.524 134.521 37.3737 132.07 38.7718C129.942 39.984 129.112 42.7258 129.954 45.2702C127.666 47.0259 124.856 48.875 121.491 50.5138C119.204 51.634 117.017 52.4802 115.037 53.1201C113.459 50.3631 111.61 47.7875 109.519 45.432C110.371 42.4439 111.788 38.9596 114.175 35.4775C116.417 32.2219 118.887 29.8558 120.981 28.1969C123.249 29.6627 126.128 29.4749 127.789 27.6019C129.677 25.4805 129.296 22.0075 126.927 19.8437C124.571 17.6748 121.13 17.6365 119.248 19.7586C117.588 21.6316 117.68 24.5511 119.355 26.7011C117.986 28.9339 115.923 31.6985 112.911 34.3189C109.588 37.2102 106.266 38.9252 103.737 39.938C100.9 37.6778 97.8033 35.7511 94.4893 34.2164C94.9876 32.8602 95.6464 31.4975 96.504 30.1607C97.1912 29.1011 97.9283 28.1707 98.6703 27.359C101.194 28.4384 104.047 27.7192 105.352 25.5384C106.82 23.1033 105.808 19.7595 103.093 18.0756C100.378 16.391 96.9929 16.9993 95.5246 19.439C94.2397 21.5828 94.8662 24.4273 96.8798 26.2266C96.442 27.3604 95.9139 28.5355 95.2828 29.7321C94.566 31.1091 93.7927 32.3764 92.9756 33.5473C92.637 33.4055 92.3048 33.269 91.966 33.1415C88.0167 31.584 83.7972 30.579 79.3903 30.2021C78.6891 28.2101 78.0868 26.0046 77.6734 23.5856C76.8349 18.6494 77.0544 14.365 77.5113 11.1508C80.1113 10.6777 82.0756 8.63359 82.106 6.15537C82.1411 3.29945 79.5948 0.952697 76.4167 0.913728C73.2321 0.87468 70.6226 3.15822 70.5876 6.01413C70.5567 8.53476 72.5406 10.656 75.1931 11.1465C75.7321 14.3266 76.0565 18.7723 75.1073 23.9097C74.6814 26.171 74.0718 28.2292 73.3683 30.0904C69.1342 30.2806 65.0599 31.0598 61.2041 32.3487C60.6817 31.4798 60.2113 30.5685 59.7942 29.4953C58.9727 27.3701 58.631 25.3838 58.5035 23.7322C61.0044 22.4482 62.3159 19.7064 61.4726 17.2566C60.5424 14.5624 57.3542 13.2466 54.3487 14.3188C51.3495 15.3912 49.6682 18.4442 50.6048 21.1391C51.4111 23.4638 53.8932 24.758 56.4857 24.3807C57.2239 25.9693 57.9271 27.7989 58.4668 29.8744C58.7615 30.9734 58.9731 32.0474 59.1336 33.0971C55.6301 34.4576 52.3396 36.2473 49.308 38.4003C47.7428 37.2192 46.1413 35.8509 44.562 34.2514C40.9277 30.5682 38.5207 26.8067 36.9458 23.7986C38.7553 21.8139 39.1052 18.9449 37.6335 16.9474C35.947 14.6615 32.5149 14.3806 29.9675 16.319C27.4265 18.2582 26.7296 21.6822 28.4097 23.9674C29.9068 25.9867 32.7524 26.4379 35.1566 25.1781C37.4549 27.3248 40.438 30.7025 42.7162 35.5336C43.7614 37.7432 44.48 39.8881 44.9821 41.8861C44.495 42.3303 44.0014 42.7888 43.5269 43.2566C41.1541 45.6174 39.0221 48.2375 37.1893 51.0786C36.1337 50.7557 35.0404 50.3672 33.9225 49.8941C30.2875 48.3548 27.4794 46.4147 25.4452 44.7293C26.3501 42.1581 25.5303 39.3621 23.375 38.1273C20.9328 36.724 17.6823 37.869 16.1195 40.6847C14.5502 43.499 15.2661 46.9187 17.7211 48.3215C19.87 49.5548 22.6403 48.8176 24.3422 46.709C26.8226 47.6149 29.9129 49.0575 33.0884 51.4028C34.0366 52.1034 34.9011 52.8225 35.7078 53.5449C33.1148 58.1571 31.2798 63.2673 30.3719 68.7053C28.1802 68.8683 25.8163 68.9306 23.2812 68.82C19.6614 68.6627 16.3986 68.1915 13.5484 67.5954C13.5191 64.7452 11.6736 62.3373 9.13441 62.0347C6.33873 61.7017 3.77366 64.0346 3.40039 67.2446C3.03353 70.4546 4.9954 73.3259 7.78467 73.6576C10.2726 73.9537 12.568 72.1367 13.3135 69.4716C16.2405 69.5675 19.5245 69.8739 23.0803 70.5406C25.5469 71.0021 27.8194 71.58 29.9243 72.2171C29.8064 73.4533 29.7461 74.7039 29.7306 75.9695C29.6937 78.9748 29.9338 81.917 30.4382 84.773C27.9913 86.3734 24.6299 88.1812 20.3572 89.4271C16.6129 90.5197 13.2503 90.866 10.5719 90.9167C9.63988 88.3712 7.27081 86.7613 4.84446 87.2059C2.08343 87.7136 0.293732 90.7026 0.858354 93.883C1.42297 97.064 4.12551 99.2306 6.88655 98.7229C9.28072 98.2838 10.9335 95.9899 10.9726 93.3219C13.7253 92.4501 16.9716 91.6398 20.6574 91.1317C24.8898 90.5481 28.6855 90.5033 31.8812 90.6835C33.1106 94.6314 34.8631 98.347 37.0367 101.755C35.9799 102.583 34.8076 103.399 33.4818 104.158C30.9532 105.613 28.5342 106.508 26.4338 107.08C25.0494 104.767 22.4174 103.657 20.1202 104.567C17.5067 105.608 16.317 108.891 17.4745 111.899C18.2027 113.787 19.6825 115.124 21.3335 115.595C22.3061 115.877 23.3402 115.857 24.3146 115.471C24.5985 115.355 24.8764 115.211 25.129 115.039C27.0451 113.782 27.8866 111.139 27.1151 108.597C29.1054 107.585 31.4293 106.586 34.0978 105.772C35.8187 105.25 37.4544 104.874 38.9925 104.598C40.3696 106.454 41.8894 108.199 43.5199 109.813C43.6722 109.967 43.8308 110.12 43.9831 110.264C42.8349 112.784 41.115 115.842 38.5406 118.933C36.0184 121.958 33.4101 124.151 31.2143 125.695C29.057 124.097 26.1994 124.096 24.425 125.835C22.3972 127.817 22.5471 131.311 24.7596 133.639C26.9594 135.962 30.3979 136.242 32.4192 134.26C34.1806 132.539 34.2991 129.676 32.8497 127.433C34.5853 125.19 36.8445 122.665 39.7197 120.181C42.8154 117.514 45.8576 115.549 48.5081 114.106C51.9572 116.663 55.7781 118.745 59.863 120.252C59.6832 121.821 59.3863 123.511 58.9087 125.285C57.8724 129.149 56.3576 132.238 54.9877 134.508C52.3554 133.939 49.7336 135.131 48.8125 137.464C47.7718 140.114 49.3196 143.236 52.2716 144.439C55.2171 145.642 58.4551 144.467 59.5087 141.814C60.4167 139.509 59.3705 136.849 57.1342 135.407C57.8036 132.659 58.8517 129.411 60.4869 125.93C61.2911 124.232 62.1384 122.686 63.0033 121.278C66.158 122.185 69.4452 122.757 72.8462 122.946C73.3652 125.657 73.7776 128.689 73.9553 131.998C74.2224 136.921 73.9058 141.274 73.3995 144.864C70.8122 145.34 68.8542 147.384 68.8239 149.857C68.7889 152.713 71.3352 155.059 74.5262 155.098C77.7043 155.137 80.3073 152.854 80.3423 149.998C80.3725 147.535 78.4781 145.448 75.9162 144.899C75.5311 141.217 75.3532 136.869 75.6567 132.019C75.8638 128.747 76.2668 125.73 76.7626 123.003C80.3213 122.909 83.7759 122.396 87.081 121.511C87.3574 122.008 87.6272 122.524 87.8904 123.054C89.6391 126.553 90.5622 129.825 91.0503 132.44C88.7416 133.764 87.5408 136.378 88.3403 138.732C89.2448 141.433 92.4262 142.772 95.4378 141.727C98.4431 140.677 100.15 137.638 99.2392 134.937C98.4338 132.54 95.8364 131.217 93.1594 131.678C91.9593 129.524 90.5736 126.275 90.1299 122.133C90.072 121.619 90.0333 121.116 90.0136 120.622C93.6956 119.377 97.1714 117.659 100.376 115.544C102.403 117.263 104.536 119.31 106.651 121.737C109.906 125.468 112.262 129.137 113.958 132.251C112.174 134.231 111.837 137.079 113.296 139.066C114.989 141.35 118.415 141.63 120.962 139.691C123.503 137.754 124.2 134.332 122.52 132.043C121.061 130.07 118.299 129.59 115.935 130.752C113.437 128.117 110.672 124.785 108.018 120.701C106.304 118.06 104.891 115.5 103.732 113.099C105.023 112.066 106.256 110.966 107.439 109.799C109.364 107.887 111.129 105.806 112.698 103.577C115.532 104.419 118.799 105.64 122.257 107.457C125.594 109.202 128.37 111.109 130.602 112.883C129.717 115.406 130.493 118.158 132.596 119.407C135.019 120.856 138.288 119.767 139.902 116.982C141.516 114.194 140.851 110.764 138.429 109.315C136.312 108.052 133.537 108.725 131.803 110.782C129.298 109.777 126.26 108.265 123.123 105.963C119.864 103.575 117.41 101.025 115.639 98.8298C116.881 96.5302 117.938 94.1089 118.791 91.5854C120.152 91.6497 121.595 91.7907 123.081 92.0366C126.92 92.6721 130.11 93.8165 132.562 94.9472C132.317 97.6492 133.789 100.144 136.164 100.795C138.877 101.54 141.752 99.6152 142.587 96.4944C143.415 93.3728 141.893 90.2414 139.173 89.4963C136.792 88.8401 134.277 90.2524 133.135 92.7288C130.525 92.4788 127.174 91.8539 123.526 90.3672C122.146 89.7997 120.869 89.172 119.708 88.5171C120.321 86.1765 120.762 83.7659 121.004 81.2923C123.376 81.1269 125.894 81.0345 128.546 81.0618C133.22 81.1054 137.466 81.4987 141.19 82.0474C141.608 84.6577 143.555 86.6649 145.962 86.7708C148.773 86.8855 151.16 84.3618 151.283 81.1325C151.413 77.9032 149.244 75.1905 146.439 75.0752Z" fill="#FA5652"/>
</svg>
