<svg width="208" height="164" viewBox="0 0 208 164" fill="none" xmlns="http://www.w3.org/2000/svg">
<path d="M158.159 1.1242C126.8 -1.31157 96.6316 1.77918 67.3711 15.9219C34.7579 31.6884 12.8542 69.0839 3.89547 102.913C0.565931 115.479 -1.14381 128.979 2.87981 141.335C12.1858 169.877 40.4351 165.751 62.4152 154.82C74.8071 148.665 85.223 139.436 95.5179 130.302C112.608 115.131 134.463 104.054 148.486 85.624C153.187 79.4266 156.161 72.7001 162.162 67.4975C171.496 59.4003 183.09 53.6451 192.841 45.9382C201.161 39.3377 209.884 29.8148 207.141 19.568C204.315 9.06262 191.542 5.31804 180.776 3.72793C173.151 2.58308 165.626 1.69281 158.159 1.1242Z" fill="url(#paint0_linear_1_1151)"/>
<defs>
<linearGradient id="paint0_linear_1_1151" x1="143.071" y1="-2.20394" x2="33.4546" y2="106.245" gradientUnits="userSpaceOnUse">
<stop stop-color="#FFD3D2"/>
<stop offset="1" stop-color="#FFFAFA"/>
</linearGradient>
</defs>
</svg>
