<svg width="131" height="135" viewBox="0 0 131 135" fill="none" xmlns="http://www.w3.org/2000/svg">
<path d="M112.69 29.8183C110.947 31.0011 110.447 33.4046 111.362 35.5488C108.873 37.6684 105.907 39.9217 102.44 42.1032C100.51 43.3131 98.6161 44.3827 96.8017 45.3231C96.5776 44.9942 96.3466 44.6653 96.1112 44.3396C94.9654 42.7552 93.7258 41.2799 92.4152 39.9071C92.7764 38.6483 93.3219 37.2051 94.1611 35.6995C95.6066 33.0832 97.3926 31.2339 98.8999 29.9833C100.983 31.2306 103.527 30.9932 104.902 29.3014C106.453 27.3947 105.943 24.3678 103.755 22.5455C101.571 20.7195 98.5452 20.7784 96.9942 22.6852C95.584 24.4233 95.8823 27.0909 97.6013 28.9329C96.8014 30.7413 95.3744 33.1061 92.8711 35.0145C91.6389 35.9574 90.4111 36.5816 89.3557 37.0045C87.078 35.0492 84.6269 33.3701 82.0423 31.9842C82.4041 30.1722 82.9214 28.1546 83.688 26.0137C84.7944 22.9093 86.1352 20.2914 87.4379 18.1656C89.7092 18.7457 91.9975 17.8299 92.8521 15.8583C93.8352 13.5963 92.5422 10.7954 89.9738 9.60389C87.4057 8.41284 84.522 9.28884 83.5409 11.5536C82.6885 13.5186 83.549 15.8934 85.4764 17.2592C84.7972 19.693 83.8021 22.4639 82.3069 25.3747C81.2945 27.3573 80.2078 29.0938 79.1583 30.5761C76.6039 29.442 73.9543 28.5777 71.2522 27.9945C70.2779 25.4335 69.4381 22.2274 69.2784 18.5189C69.1369 15.0458 69.6219 12.0853 70.2163 9.82094C72.5751 9.68114 74.4925 8.05167 74.6704 5.86108C74.8772 3.37603 72.7842 1.11243 69.9879 0.809725C67.198 0.496737 64.768 2.25817 64.5661 4.7404C64.3882 6.931 65.988 8.95222 68.2916 9.60555C68.5066 11.8999 68.5155 14.9318 67.7844 18.3544C66.9775 22.131 65.5533 25.0729 64.3145 27.1056C61.14 26.9776 57.9583 27.2215 54.8308 27.856C54.4667 26.6358 54.2115 25.3275 54.1092 23.9342C54.0333 22.826 54.0602 21.7834 54.1531 20.8224C56.4874 20.2761 58.1074 18.2833 57.8744 16.0595C57.6222 13.5703 55.1553 11.7262 52.3689 11.9436C49.5821 12.1605 47.5316 14.351 47.7862 16.8434C48.0136 19.0308 49.9479 20.7214 52.3039 20.9503C52.5935 21.9814 52.8415 23.0889 53.0287 24.2651C53.2508 25.6137 53.3756 26.9139 53.4191 28.1685C53.1075 28.2439 52.803 28.3198 52.4988 28.4055C48.9144 29.3541 45.4315 30.8347 42.1474 32.8579C40.609 31.8104 39.0277 30.5601 37.4664 29.0603C34.2839 25.9972 32.185 22.8462 30.8149 20.3305C32.3868 18.6439 32.6876 16.1741 31.4059 14.4016C29.9288 12.3591 26.912 12.019 24.6661 13.6431C22.4156 15.2706 21.789 18.2454 23.2661 20.2879C24.5697 22.0907 27.0742 22.5631 29.1895 21.5323C31.2388 23.5063 33.8034 26.4889 35.8399 30.6237C36.7307 32.4479 37.3859 34.2236 37.8719 35.9085C35.007 38.2438 32.5638 40.9137 30.5415 43.8313C29.7189 43.4869 28.9103 43.0854 28.054 42.5415C26.3613 41.462 25.0777 40.2317 24.1201 39.1273C25.1962 36.9174 24.673 34.2923 22.7944 32.9941C20.7265 31.5679 17.8022 32.2921 16.2614 34.6142C14.7252 36.9331 15.153 39.9709 17.2258 41.3943C19.0126 42.6231 21.4311 42.2505 23.0481 40.6357C24.4003 41.378 25.8547 42.3094 27.3238 43.5001C28.108 44.1259 28.8208 44.7772 29.4852 45.4378C27.7472 48.223 26.3841 51.2017 25.3932 54.3035C23.6762 54.2797 21.8354 54.1422 19.8885 53.8292C15.4071 53.1073 11.744 51.6921 9.05963 50.3784C9.2832 48.0311 8.01972 45.8157 5.93893 45.1647C3.55611 44.4209 1.00519 46.0055 0.240611 48.7034C-0.519098 51.3986 0.793094 54.1878 3.17105 54.9344C5.28112 55.5877 7.5109 54.4286 8.53209 52.2861C11.27 52.6132 15.1348 53.457 19.2702 55.6974C21.1638 56.7203 22.7948 57.8672 24.1968 59.0225C24.0893 59.5905 23.9847 60.1721 23.8984 60.7503C23.4781 63.6568 23.3629 66.6221 23.5732 69.5885C22.6643 69.9082 21.6945 70.201 20.6629 70.4468C17.3083 71.2448 14.3219 71.329 12.0114 71.1916C11.2931 68.8988 9.24899 67.343 7.09058 67.588C4.64263 67.8625 2.96857 70.3635 3.35463 73.1715C3.73547 75.9819 6.03472 78.0338 8.4914 77.7522C10.6446 77.5096 12.1968 75.5473 12.2798 73.1681C14.493 72.5212 17.4154 71.9376 20.8721 71.9496C21.9045 71.9534 22.8879 72.0138 23.8326 72.1066C24.4419 76.7235 25.8437 81.2994 28.0672 85.6258C26.6182 86.8804 24.9957 88.1532 23.1623 89.3923C20.545 91.1621 18.0125 92.5238 15.7033 93.5827C14.1842 91.5776 11.6259 90.83 9.68879 91.9352C7.55603 93.1521 6.98649 96.1388 8.41284 98.6081C9.84372 101.074 12.7271 102.09 14.8547 100.875C16.7525 99.7921 17.4045 97.3112 16.5252 95.0346C18.6252 93.5813 21.0859 92.0918 23.9263 90.7163C25.8961 89.7615 27.7913 88.99 29.6002 88.3477C30.1676 89.2852 30.7829 90.203 31.4374 91.1081C32.9918 93.2575 34.7068 95.2182 36.5616 96.9805C35.6896 99.3866 34.2864 102.415 31.9496 105.519C29.9022 108.239 27.7296 110.232 25.8808 111.66C23.8898 110.34 21.3845 110.43 19.9192 112.007C18.2527 113.801 18.5711 116.85 20.6386 118.811C22.7065 120.772 25.738 120.904 27.4045 119.109C28.8501 117.553 28.8014 115.068 27.426 113.157C28.8951 111.108 30.7423 108.847 33.056 106.571C35.7129 103.958 38.3472 101.953 40.6796 100.42C43.6162 102.579 46.7969 104.302 50.1109 105.588C49.8062 106.725 49.4141 107.912 48.8851 109.139C47.8796 111.485 46.6562 113.377 45.4861 114.873C43.3007 113.954 40.874 114.535 39.7439 116.374C38.461 118.469 39.3539 121.415 41.7461 122.945C43.2486 123.905 44.988 124.084 46.3917 123.56C47.2211 123.254 47.9347 122.703 48.4137 121.922C48.5519 121.693 48.6707 121.446 48.7569 121.193C49.438 119.306 48.6373 116.995 46.7607 115.595C47.6221 113.843 48.7245 111.927 50.165 109.963C51.0957 108.699 52.043 107.582 52.975 106.587C54.9155 107.187 56.8971 107.634 58.8871 107.93C59.0746 107.96 59.2666 107.987 59.4487 108.009C59.9696 110.392 60.3733 113.454 60.1954 116.983C60.0198 120.438 59.3463 123.348 58.621 125.584C56.2701 125.572 54.2686 127.057 53.9402 129.211C53.5623 131.67 55.5044 134.069 58.2779 134.569C61.0396 135.072 63.5947 133.484 63.9676 131.028C64.2964 128.893 62.8739 126.802 60.6796 125.965C60.7158 123.474 60.9704 120.51 61.6774 117.255C62.4432 113.756 63.5403 110.782 64.6374 108.381C68.3968 108.401 72.1673 107.891 75.82 106.836C76.5186 108.041 77.1993 109.394 77.7975 110.899C79.1035 114.177 79.6669 117.154 79.9015 119.475C77.759 120.44 76.5501 122.647 77.1317 124.78C77.7959 127.198 80.5211 128.607 83.2209 127.926C85.9162 127.248 87.5657 124.732 86.9082 122.303C86.3324 120.198 84.2011 118.856 81.8771 118.996C80.9008 116.7 79.9273 113.854 79.2418 110.536C78.9124 108.915 78.6927 107.379 78.5582 105.931C81.2441 104.935 83.8466 103.632 86.3273 101.998C88.1163 103.65 89.999 105.584 91.8634 107.838C94.639 111.189 96.7057 114.438 98.2387 117.246C96.6775 118.929 96.3813 121.395 97.66 123.163C99.137 125.206 102.154 125.545 104.409 123.915C106.654 122.291 107.277 119.32 105.8 117.277C104.526 115.516 102.102 115.021 100.02 115.963C97.8141 113.554 95.4035 110.564 93.0658 106.968C91.4904 104.541 90.1863 102.193 89.0997 100.003C91.5422 98.0865 93.6919 95.928 95.5407 93.5828C95.9954 93.7911 96.4557 94.0167 96.9189 94.2559C99.983 95.8272 102.35 97.6664 104.066 99.2663C103.146 101.405 103.679 103.882 105.477 105.135C107.53 106.579 110.462 105.875 112.021 103.569C113.574 101.263 113.171 98.2214 111.113 96.7801C109.289 95.5001 106.775 95.9122 105.143 97.6303C103.169 96.7267 100.491 95.1443 98.0024 92.4386C97.6919 92.1047 97.4003 91.7684 97.1268 91.4283C99.0502 88.632 100.581 85.608 101.713 82.4433C104.036 82.6078 106.606 82.9508 109.363 83.5718C113.604 84.525 117.183 85.9008 120.008 87.2268C119.8 89.5576 121.061 91.7511 123.128 92.4012C125.514 93.1404 128.06 91.5581 128.824 88.8601C129.585 86.1664 128.274 83.3786 125.894 82.6296C123.835 81.9893 121.649 83.0844 120.604 85.1372C117.469 84.567 113.781 83.6429 109.776 82.1265C107.187 81.1457 104.851 80.0658 102.777 78.9658C103.138 77.5631 103.424 76.1424 103.638 74.7003C103.98 72.3448 104.123 69.9524 104.049 67.5568C106.476 66.6804 109.406 65.8487 112.782 65.3389C116.037 64.8415 118.984 64.7509 121.479 64.8477C122.186 67.0962 124.176 68.6436 126.306 68.4361C128.764 68.204 130.48 65.7329 130.146 62.9206C129.81 60.1049 127.542 58.0193 125.084 58.2513C122.937 58.4556 121.348 60.3755 121.215 62.7342C118.933 63.3243 116.011 63.8313 112.604 63.8304C109.066 63.8307 106.007 63.2987 103.613 62.6633C103.273 60.3879 102.741 58.1223 102.011 55.8902C102.997 55.2287 104.082 54.5786 105.252 53.9802C108.275 52.4357 111.11 51.5887 113.422 51.1159C114.671 53.1585 117.013 54.1617 119.018 53.389C121.31 52.5068 122.311 49.6485 121.254 47.0027C120.193 44.3597 117.481 42.9312 115.184 43.8166C113.172 44.5888 112.154 46.8971 112.656 49.2456C110.697 50.4251 108.022 51.7236 104.686 52.5661C103.421 52.881 102.197 53.0996 101.04 53.2386C100.239 51.2609 99.2798 49.3233 98.1488 47.444C99.7225 46.0943 101.437 44.7199 103.309 43.3611C106.605 40.9627 109.785 39.0346 112.681 37.488C114.346 39.1212 116.764 39.5322 118.505 38.3564C120.534 36.9767 120.879 33.9469 119.267 31.5939C117.66 29.2377 114.715 28.4423 112.69 29.8183Z" fill="#FFE1E1"/>
</svg>
