<svg width="166" height="332" viewBox="0 0 166 332" fill="none" xmlns="http://www.w3.org/2000/svg">
<g opacity="0.5" filter="url(#filter0_d_1_656)">
<path d="M308.692 154.014C303.635 153.865 299.277 157.803 298.039 163.217C290.211 163.833 281.267 164.043 271.448 163.415C265.988 163.056 260.796 162.478 255.94 161.761C255.967 160.814 255.981 159.857 255.981 158.9C255.981 154.245 255.645 149.669 255.026 145.192C257.501 143.267 260.594 141.244 264.347 139.51C270.843 136.479 276.923 135.403 281.617 135.093C283.917 140.406 289.203 143.498 294.26 142.151C299.963 140.637 303.231 134.086 301.536 127.517C299.855 120.946 293.883 116.839 288.18 118.354C282.989 119.74 279.814 125.303 280.568 131.255C276.465 133.628 270.359 136.199 262.8 136.389C259.074 136.489 255.806 135.98 253.156 135.323C251.475 128.373 249.067 121.714 245.987 115.434C249.242 112.443 253.089 109.272 257.595 106.211C264.118 101.766 270.413 98.5858 275.941 96.3021C279.545 100.59 285.289 102.016 289.727 99.4042C294.825 96.4117 296.25 89.2039 292.928 83.3218C289.606 77.441 282.76 75.1079 277.662 78.1086C273.237 80.7104 271.569 86.4925 273.399 91.8167C268.651 95.5645 262.813 99.522 255.806 103.052C251.045 105.464 246.485 107.299 242.356 108.694C238.98 102.942 235.039 97.5782 230.601 92.6831C232.309 86.3828 235.187 79.0257 240.096 71.648C244.71 64.7501 249.821 59.7151 254.165 56.1757C258.953 59.1969 264.979 58.7282 268.409 54.7501C272.309 50.2443 271.422 42.957 266.405 38.4718C261.415 33.9755 254.205 33.9837 250.318 38.4909C246.889 42.469 247.158 48.6006 250.722 53.0749C247.911 57.8014 243.661 63.6631 237.42 69.2464C230.533 75.4068 223.62 79.0956 218.348 81.2889C212.349 76.6131 205.812 72.6446 198.832 69.5054C199.84 66.6432 201.185 63.7631 202.947 60.9324C204.359 58.6884 205.879 56.7145 207.413 54.99C212.725 57.1929 218.684 55.6082 221.36 50.9927C224.373 45.8385 222.167 38.8391 216.438 35.371C210.708 31.9015 203.633 33.2667 200.62 38.4305C197.984 42.9679 199.37 48.9282 203.633 52.6568C202.746 55.0502 201.669 57.5328 200.378 60.0633C198.912 62.9749 197.325 65.6576 195.644 68.1388C194.931 67.8495 194.232 67.5712 193.519 67.3121C185.207 64.1415 176.343 62.1386 167.103 61.4601C165.583 57.2928 164.265 52.6746 163.337 47.6026C161.454 37.253 161.803 28.2455 162.678 21.4806C168.112 20.4196 172.173 16.0741 172.173 10.8665C172.173 4.86504 166.78 -1.57673e-05 160.122 -1.57447e-05C153.451 -1.5722e-05 148.044 4.86504 148.044 10.8665C148.044 16.1633 152.254 20.569 157.822 21.5313C159.033 28.1989 159.826 37.5313 157.97 48.3497C157.136 53.1119 155.912 57.452 154.487 61.3807C145.623 61.8893 137.109 63.6315 129.066 66.4389C127.95 64.6267 126.941 62.7241 126.04 60.4801C124.264 56.0359 123.498 51.8714 123.188 48.4046C128.393 45.6425 131.07 39.848 129.241 34.7225C127.223 29.0858 120.512 26.4032 114.244 28.7335C107.99 31.0639 104.546 37.5217 106.577 43.1598C108.326 48.0234 113.558 50.6787 118.978 49.8192C120.565 53.1379 122.085 56.9639 123.269 61.3107C123.915 63.6123 124.385 65.8632 124.749 68.0647C117.445 71.0134 110.599 74.8584 104.304 79.4603C100.996 77.0188 97.6062 74.1854 94.2571 70.8653C86.5503 63.2203 81.4122 55.3792 78.0363 49.0995C81.7754 44.8829 82.4345 38.8459 79.3006 34.6869C75.7095 29.9275 68.5137 29.4257 63.2278 33.5642C57.9554 37.704 56.5835 44.9159 60.1612 49.674C63.3489 53.8782 69.3207 54.7528 74.3241 52.0441C79.193 56.4951 85.5281 63.515 90.4239 73.6069C92.67 78.2224 94.2302 82.7105 95.3332 86.8956C94.3244 87.8414 93.3021 88.8173 92.3203 89.8125C87.411 94.8338 83.0128 100.394 79.2468 106.41C77.0275 105.759 74.7276 104.971 72.3738 104.006C64.7207 100.865 58.7893 96.8613 54.4852 93.3726C56.3144 87.947 54.5256 82.0935 49.9795 79.5548C44.8281 76.6692 38.0492 79.1587 34.8481 85.1148C31.6335 91.0682 33.2207 98.2348 38.399 101.119C42.9317 103.655 48.7152 102.035 52.2256 97.5604C57.4443 99.4 63.9541 102.351 70.6657 107.197C72.6697 108.645 74.499 110.133 76.2071 111.63C70.8943 121.388 67.1821 132.172 65.4201 143.621C60.8336 144.02 55.8841 144.212 50.5713 144.044C42.9855 143.807 36.1393 142.901 30.154 141.722C30.0195 135.735 26.0921 130.723 20.7659 130.153C14.9016 129.525 9.58887 134.493 8.88947 141.247C8.20351 148.001 12.3865 153.983 18.2373 154.608C23.4559 155.166 28.2172 151.289 29.7102 145.67C35.8434 145.796 42.7298 146.356 50.1946 147.665C55.3729 148.571 60.1477 149.726 64.5728 151.011C64.3576 153.611 64.2635 156.241 64.2635 158.9C64.2635 165.215 64.8418 171.391 65.9717 177.378C60.8875 180.804 53.8934 184.689 44.976 187.417C37.1615 189.809 30.1272 190.623 24.5185 190.799C22.501 185.474 17.4975 182.153 12.4268 183.149C6.65673 184.287 2.98488 190.614 4.24919 197.281C5.5135 203.95 11.2298 208.433 16.9998 207.295C22.0033 206.311 25.4062 201.448 25.4197 195.842C31.1629 193.939 37.9416 192.153 45.6485 190.991C54.4987 189.655 62.4477 189.463 69.1458 189.76C71.8224 198.023 75.5885 205.784 80.2287 212.889C78.0364 214.656 75.6019 216.4 72.8446 218.03C67.5856 221.152 62.5418 223.095 58.1571 224.351C55.1981 219.527 49.6567 217.262 44.8684 219.233C39.4211 221.487 37.0136 228.415 39.5153 234.706C41.089 238.654 44.2228 241.425 47.6929 242.373C49.7374 242.94 51.9029 242.871 53.9338 242.034C54.5256 241.784 55.1039 241.475 55.6285 241.106C59.6097 238.416 61.3044 232.84 59.6232 227.52C63.7658 225.342 68.6079 223.184 74.1762 221.405C77.7674 220.264 81.1837 219.431 84.3983 218.811C87.3304 222.677 90.5584 226.304 94.0151 229.651C94.3379 229.971 94.6741 230.29 94.9969 230.588C92.6566 235.912 89.1326 242.382 83.8198 248.941C78.6146 255.362 73.2077 260.037 68.6481 263.339C64.0886 260.037 58.1033 260.108 54.4314 263.806C50.235 268.023 50.6385 275.361 55.3326 280.196C59.9997 285.02 67.209 285.52 71.392 281.302C75.037 277.642 75.2118 271.623 72.1182 266.947C75.696 262.19 80.3632 256.828 86.3216 251.534C92.7373 245.852 99.0589 241.645 104.573 238.544C111.863 243.827 119.92 248.104 128.515 251.165C128.178 254.464 127.6 258.023 126.645 261.763C124.574 269.908 121.48 276.437 118.669 281.243C113.141 280.115 107.68 282.688 105.811 287.613C103.699 293.206 107.021 299.726 113.235 302.178C119.436 304.63 126.188 302.078 128.326 296.476C130.169 291.611 127.909 286.048 123.188 283.076C124.52 277.284 126.631 270.434 129.967 263.077C131.608 259.49 133.343 256.219 135.118 253.239C141.749 255.063 148.649 256.181 155.778 256.489C156.934 262.172 157.876 268.532 158.333 275.48C159.019 285.818 158.468 294.97 157.499 302.526C152.093 303.594 148.044 307.94 148.044 313.135C148.044 319.136 153.438 324 160.122 324C166.78 324 172.173 319.136 172.173 313.135C172.173 307.96 168.152 303.623 162.772 302.536C161.871 294.81 161.386 285.679 161.898 275.48C162.247 268.6 163.014 262.251 163.982 256.508C171.434 256.219 178.656 255.054 185.556 253.109C186.148 254.145 186.726 255.222 187.291 256.33C191.044 263.636 193.061 270.486 194.151 275.968C189.349 278.81 186.901 284.333 188.636 289.258C190.6 294.91 197.298 297.642 203.579 295.368C209.847 293.086 213.344 286.655 211.367 281.003C209.618 275.989 204.144 273.276 198.549 274.314C195.98 269.817 192.994 263.028 191.958 254.336C191.824 253.258 191.73 252.203 191.676 251.165C199.356 248.453 206.592 244.755 213.25 240.229C217.541 243.787 222.06 248.034 226.552 253.079C233.465 260.835 238.496 268.482 242.127 274.981C238.442 279.188 237.81 285.18 240.917 289.317C244.521 294.073 251.704 294.572 256.99 290.433C262.262 286.297 263.634 279.09 260.056 274.325C256.949 270.216 251.152 269.279 246.23 271.782C240.93 266.308 235.053 259.38 229.39 250.866C225.732 245.362 222.705 240.02 220.217 235.004C222.894 232.802 225.449 230.459 227.897 227.976C231.878 223.909 235.523 219.492 238.751 214.767C244.71 216.463 251.583 218.945 258.873 222.673C265.907 226.253 271.771 230.19 276.492 233.858C274.703 239.183 276.398 244.944 280.837 247.516C285.948 250.497 292.767 248.124 296.076 242.233C299.384 236.331 297.905 229.143 292.794 226.161C288.328 223.561 282.531 225.047 278.954 229.413C273.681 227.368 267.279 224.268 260.648 219.513C253.762 214.578 248.556 209.284 244.79 204.718C247.333 199.854 249.484 194.74 251.206 189.416C254.057 189.516 257.084 189.775 260.204 190.253C268.261 191.49 274.972 193.812 280.137 196.124C279.693 201.808 282.841 207.011 287.831 208.318C293.534 209.813 299.505 205.695 301.173 199.117C302.827 192.537 299.559 185.997 293.843 184.501C288.839 183.184 283.607 186.216 281.281 191.448C275.806 190.991 268.772 189.764 261.092 186.734C258.187 185.577 255.497 184.291 253.049 182.945C254.273 178.012 255.133 172.936 255.577 167.732C260.54 167.324 265.813 167.064 271.368 167.053C281.159 167.025 290.063 167.742 297.878 168.799C298.819 174.272 302.949 178.439 307.992 178.6C313.883 178.768 318.82 173.404 318.994 166.616C319.183 159.828 314.569 154.184 308.692 154.014Z" fill="#FF383D"/>
</g>
<defs>
<filter id="filter0_d_1_656" x="0" y="0" width="323" height="332" filterUnits="userSpaceOnUse" color-interpolation-filters="sRGB">
<feFlood flood-opacity="0" result="BackgroundImageFix"/>
<feColorMatrix in="SourceAlpha" type="matrix" values="0 0 0 0 0 0 0 0 0 0 0 0 0 0 0 0 0 0 127 0" result="hardAlpha"/>
<feOffset dy="4"/>
<feGaussianBlur stdDeviation="2"/>
<feColorMatrix type="matrix" values="0 0 0 0 0 0 0 0 0 0 0 0 0 0 0 0 0 0 0.07 0"/>
<feBlend mode="normal" in2="BackgroundImageFix" result="effect1_dropShadow_1_656"/>
<feBlend mode="normal" in="SourceGraphic" in2="effect1_dropShadow_1_656" result="shape"/>
</filter>
</defs>
</svg>
