<svg width="201" height="384" viewBox="0 0 201 384" fill="none" xmlns="http://www.w3.org/2000/svg">
<path opacity="0.1" d="M363.128 184.633C357.129 184.382 351.9 188.978 350.353 195.364C341.055 195.98 330.438 196.098 318.796 195.212C312.321 194.708 306.168 193.948 300.417 193.029C300.462 191.909 300.492 190.777 300.506 189.645C300.574 184.138 300.241 178.72 299.572 173.415C302.536 171.174 306.237 168.825 310.715 166.829C318.468 163.338 325.698 162.153 331.273 161.855C333.925 168.174 340.153 171.908 346.174 170.389C352.963 168.68 356.937 160.977 355.021 153.182C353.121 145.385 346.094 140.439 339.305 142.148C333.124 143.712 329.276 150.247 330.084 157.299C325.181 160.046 317.898 163 308.925 163.114C304.502 163.178 300.631 162.528 297.496 161.713C295.602 153.467 292.841 145.554 289.278 138.08C293.183 134.589 297.794 130.894 303.186 127.338C310.991 122.174 318.507 118.504 325.1 115.882C329.316 121.007 336.11 122.777 341.415 119.753C347.508 116.287 349.304 107.781 345.447 100.774C341.59 93.7686 333.5 90.9089 327.407 94.3845C322.118 97.3981 320.055 104.214 322.149 110.539C316.46 114.904 309.475 119.501 301.109 123.574C295.423 126.359 289.986 128.463 285.066 130.053C281.143 123.2 276.544 116.797 271.348 110.941C273.467 103.513 276.989 94.8514 282.922 86.195C288.496 78.1019 294.635 72.2199 299.841 68.0959C305.48 71.7398 312.637 71.2729 316.765 66.6168C321.459 61.3431 320.511 52.7094 314.623 47.3303C308.766 41.9386 300.211 41.8434 295.533 47.1189C291.405 51.775 291.636 59.0326 295.8 64.3776C292.396 69.9282 287.267 76.8007 279.78 83.315C271.519 90.5026 263.262 94.7658 256.973 97.2838C249.922 91.665 242.223 86.8751 233.985 83.0599C235.223 79.6886 236.861 76.301 238.993 72.9779C240.701 70.3438 242.534 68.0308 244.378 66.013C250.651 68.6964 257.745 66.9084 260.988 61.4872C264.638 55.4335 262.122 47.1212 255.373 42.935C248.624 38.7472 240.208 40.2593 236.558 46.3243C233.364 51.6537 234.922 58.7249 239.927 63.1979C238.839 66.0164 237.526 68.9376 235.957 71.9124C234.175 75.3355 232.253 78.4861 230.222 81.3968C229.38 81.0443 228.554 80.7048 227.712 80.388C217.894 76.5161 207.405 74.0178 196.449 73.0806C194.706 68.1286 193.209 62.6461 192.181 56.6324C190.097 44.3615 190.643 33.7106 191.778 25.7204C198.242 24.5443 203.125 19.4628 203.2 13.3021C203.288 6.20239 196.958 0.368524 189.057 0.271649C181.14 0.174579 174.653 5.85129 174.566 12.951C174.49 19.2171 179.422 24.4903 186.015 25.7098C187.355 33.6152 188.162 44.667 185.802 57.4382C184.743 63.0597 183.228 68.1762 181.479 72.8032C170.953 73.2758 160.825 75.213 151.239 78.4171C149.941 76.257 148.772 73.9915 147.735 71.3238C145.692 66.0405 144.843 61.1027 144.526 56.997C150.743 53.8051 154.003 46.9892 151.907 40.8991C149.595 34.2015 141.669 30.9303 134.197 33.5959C126.742 36.2618 122.562 43.8512 124.89 50.5507C126.895 56.3298 133.065 59.5471 139.51 58.6092C141.345 62.5584 143.093 67.1066 144.435 72.2661C145.167 74.9983 145.693 77.668 146.092 80.2777C137.383 83.6596 129.203 88.1087 121.666 93.4611C117.776 90.5248 113.794 87.1234 109.868 83.147C100.834 73.9908 94.8501 64.6401 90.935 57.1621C95.4333 52.2283 96.303 45.0961 92.6444 40.1303C88.4519 34.4477 79.92 33.7494 73.5873 38.5683C67.2706 43.389 65.538 51.9007 69.7146 57.5816C73.4363 62.6016 80.5103 63.7231 86.4871 60.5915C92.2004 65.9279 99.6162 74.3246 105.28 86.3346C107.878 91.8274 109.665 97.1595 110.913 102.127C109.702 103.231 108.475 104.37 107.295 105.533C101.396 111.402 96.0965 117.916 91.5401 124.978C88.916 124.176 86.1982 123.21 83.419 122.034C74.3828 118.207 67.4021 113.384 62.3451 109.195C64.5945 102.803 62.5566 95.8519 57.1987 92.7825C51.1275 89.2939 43.047 92.1403 39.1619 99.1398C35.2609 106.136 37.0404 114.637 43.1435 118.124C48.4856 121.191 55.3723 119.358 59.603 114.116C65.7692 116.368 73.4514 119.954 81.3456 125.784C83.7028 127.526 85.852 129.314 87.8573 131.11C81.4112 142.575 76.8495 155.279 74.5925 168.797C69.144 169.203 63.2677 169.358 56.9656 169.082C47.967 168.692 39.8559 167.52 32.7703 166.038C32.6976 158.953 28.1097 152.967 21.7974 152.215C14.8476 151.387 8.47094 157.186 7.543 165.166C6.63102 173.146 11.5081 180.284 18.4421 181.109C24.6268 181.845 30.3332 177.328 32.1864 170.702C39.4628 170.941 47.6267 171.703 56.466 173.36C62.5978 174.507 68.2473 175.944 73.4798 177.528C73.1867 180.601 73.0369 183.71 72.9983 186.856C72.9067 194.327 73.5035 201.641 74.7573 208.741C68.6744 212.719 60.3183 217.213 49.6966 220.311C40.3885 223.027 32.0292 223.888 25.3709 224.014C23.054 217.686 17.1646 213.684 11.1329 214.789C4.26913 216.051 -0.179957 223.481 1.22366 231.388C2.62725 239.295 9.34562 244.681 16.2094 243.419C22.1611 242.328 26.2699 236.625 26.3672 229.993C33.2101 227.826 41.2803 225.811 50.4428 224.548C60.9645 223.097 70.4002 222.986 78.3445 223.434C81.4009 233.248 85.7574 242.485 91.1609 250.957C88.5336 253.016 85.6193 255.043 82.3237 256.931C76.0376 260.549 70.0241 262.773 64.8026 264.195C61.3611 258.445 54.8181 255.686 49.1074 257.948C42.6105 260.535 39.653 268.696 42.5305 276.174C44.3407 280.867 48.0194 284.192 52.1236 285.363C54.5414 286.064 57.1122 286.014 59.5344 285.053C60.2403 284.767 60.9311 284.408 61.5589 283.98C66.3224 280.856 68.4144 274.284 66.4964 267.966C71.444 265.449 77.2213 262.967 83.8549 260.943C88.1331 259.646 92.1992 258.71 96.0229 258.024C99.4463 262.639 103.224 266.977 107.278 270.988C107.656 271.37 108.051 271.753 108.429 272.11C105.575 278.374 101.299 285.977 94.8994 293.66C88.6294 301.18 82.1453 306.631 76.6866 310.471C71.3237 306.498 64.22 306.495 59.809 310.817C54.768 315.744 55.1405 324.431 60.6407 330.219C66.1092 335.994 74.6571 336.69 79.6821 331.761C84.0607 327.485 84.3554 320.366 80.7522 314.79C85.0668 309.215 90.6831 302.939 97.8306 296.763C105.526 290.134 113.089 285.249 119.678 281.661C128.252 288.017 137.751 293.194 147.906 296.94C147.459 300.839 146.721 305.04 145.533 309.45C142.957 319.056 139.191 326.735 135.786 332.38C129.242 330.965 122.725 333.929 120.435 339.728C117.848 346.314 121.695 354.075 129.034 357.067C136.356 360.058 144.406 357.137 147.025 350.54C149.282 344.812 146.681 338.198 141.122 334.614C142.786 327.781 145.392 319.709 149.457 311.054C151.456 306.834 153.562 302.99 155.712 299.49C163.555 301.745 171.726 303.167 180.181 303.635C181.471 310.376 182.496 317.912 182.938 326.139C183.602 338.378 182.815 349.198 181.556 358.123C175.125 359.307 170.257 364.389 170.182 370.535C170.095 377.635 176.425 383.467 184.357 383.564C192.258 383.661 198.729 377.986 198.816 370.886C198.891 364.764 194.182 359.575 187.813 358.211C186.856 349.058 186.413 338.249 187.168 326.191C187.683 318.057 188.685 310.557 189.917 303.778C198.764 303.544 207.352 302.27 215.568 300.07C216.255 301.304 216.926 302.587 217.58 303.906C221.927 312.604 224.222 320.737 225.435 327.238C219.696 330.53 216.711 337.028 218.699 342.88C220.947 349.594 228.856 352.924 236.343 350.325C243.813 347.716 248.057 340.16 245.792 333.445C243.79 327.487 237.333 324.198 230.678 325.344C227.695 319.988 224.25 311.912 223.147 301.614C223.003 300.338 222.907 299.088 222.858 297.859C232.011 294.763 240.652 290.493 248.618 285.235C253.658 289.508 258.96 294.597 264.217 300.631C272.309 309.907 278.167 319.027 282.382 326.768C277.948 331.691 277.111 338.771 280.738 343.71C284.947 349.388 293.462 350.083 299.795 345.264C306.112 340.448 307.845 331.941 303.668 326.252C300.041 321.347 293.175 320.153 287.297 323.043C281.088 316.49 274.213 308.209 267.617 298.054C263.356 291.49 259.842 285.127 256.962 279.157C260.17 276.59 263.237 273.855 266.178 270.954C270.961 266.201 275.351 261.029 279.25 255.486C286.296 257.578 294.416 260.615 303.013 265.131C311.308 269.469 318.21 274.212 323.759 278.62C321.559 284.892 323.487 291.733 328.717 294.84C334.739 298.441 342.865 295.733 346.877 288.812C350.889 281.878 349.238 273.353 343.216 269.751C337.954 266.61 331.054 268.284 326.745 273.397C320.518 270.9 312.965 267.141 305.165 261.418C297.065 255.48 290.965 249.142 286.562 243.685C289.649 237.968 292.277 231.949 294.397 225.676C297.779 225.836 301.367 226.186 305.063 226.798C314.606 228.378 322.537 231.222 328.632 234.033C328.023 240.75 331.682 246.952 337.585 248.57C344.331 250.422 351.477 245.637 353.552 237.879C355.61 230.119 351.827 222.335 345.065 220.483C339.146 218.851 332.894 222.362 330.057 228.518C323.567 227.897 315.237 226.343 306.167 222.648C302.737 221.237 299.563 219.676 296.678 218.048C298.202 212.23 299.297 206.237 299.899 200.088C305.795 199.677 312.055 199.447 318.647 199.515C330.267 199.623 340.823 200.601 350.081 201.965C351.119 208.454 355.958 213.444 361.941 213.707C368.93 213.992 374.865 207.719 375.171 199.691C375.493 191.663 370.101 184.919 363.128 184.633Z" fill="#FA5652"/>
</svg>
