<svg width="254" height="259" viewBox="0 0 254 259" fill="none" xmlns="http://www.w3.org/2000/svg">
<path d="M245.688 123.116C241.61 122.997 238.096 126.145 237.098 130.473C230.786 130.966 223.574 131.133 215.657 130.631C211.254 130.344 207.067 129.882 203.152 129.309C203.174 128.552 203.185 127.787 203.185 127.022C203.185 123.301 202.913 119.643 202.415 116.064C204.41 114.525 206.905 112.908 209.93 111.522C215.169 109.099 220.071 108.239 223.856 107.991C225.711 112.238 229.973 114.709 234.051 113.633C238.649 112.423 241.285 107.186 239.918 101.935C238.562 96.6825 233.747 93.3994 229.149 94.6103C224.962 95.7181 222.403 100.165 223.01 104.923C219.702 106.82 214.778 108.875 208.683 109.027C205.679 109.107 203.044 108.7 200.907 108.175C199.551 102.619 197.61 97.2961 195.126 92.2762C197.751 89.8852 200.853 87.3506 204.486 84.9036C209.746 81.35 214.822 78.8078 219.279 76.9822C222.186 80.4099 226.817 81.5495 230.396 79.462C234.506 77.0699 235.656 71.3081 232.977 66.606C230.298 61.9051 224.778 60.04 220.667 62.4387C217.099 64.5185 215.754 69.1406 217.229 73.3967C213.401 76.3926 208.694 79.5562 203.044 82.3778C199.204 84.3064 195.528 85.7727 192.198 86.8882C189.476 82.2902 186.298 78.0024 182.719 74.0893C184.097 69.0529 186.417 63.1718 190.376 57.2742C194.096 51.7601 198.217 47.7352 201.72 44.9059C205.581 47.321 210.44 46.9463 213.206 43.7663C216.351 40.1644 215.635 34.3391 211.59 30.7537C207.566 27.1595 201.753 27.166 198.619 30.769C195.853 33.949 196.07 38.8505 198.944 42.4272C196.677 46.2055 193.25 50.8912 188.218 55.3544C182.665 60.2789 177.09 63.2277 172.839 64.981C168.002 61.2432 162.731 58.0708 157.102 55.5615C157.916 53.2734 159 50.9711 160.421 48.7083C161.56 46.9145 162.785 45.3366 164.022 43.9581C168.306 45.719 173.11 44.4523 175.268 40.7627C177.698 36.6425 175.919 31.0473 171.299 28.275C166.679 25.5015 160.974 26.5928 158.545 30.7207C156.419 34.3478 157.536 39.1124 160.974 42.093C160.258 44.0062 159.391 45.9907 158.349 48.0136C157.167 50.3411 155.888 52.4856 154.532 54.469C153.957 54.2378 153.393 54.0153 152.818 53.8082C146.116 51.2736 138.969 49.6726 131.518 49.1302C130.292 45.7989 129.229 42.1072 128.481 38.0527C126.963 29.7794 127.245 22.579 127.95 17.1712C132.331 16.3231 135.606 12.8494 135.606 8.68648C135.606 3.88905 131.258 5.41132e-06 125.889 5.42958e-06C120.51 5.44787e-06 116.15 3.88905 116.15 8.68648C116.15 12.9206 119.544 16.4425 124.034 17.2118C125.01 22.5417 125.65 30.0019 124.154 38.65C123.481 42.4568 122.494 45.9261 121.345 49.0667C114.198 49.4732 107.332 50.8659 100.847 53.1101C99.9466 51.6615 99.1332 50.1406 98.4066 48.3467C96.975 44.7941 96.3568 41.4651 96.1073 38.6938C100.305 36.4858 102.463 31.8538 100.988 27.7566C99.361 23.2507 93.9491 21.1063 88.8951 22.9691C83.8519 24.832 81.0755 29.9942 82.7132 34.5012C84.1231 38.3891 88.342 40.5117 92.7127 39.8246C93.9925 42.4776 95.2181 45.536 96.1725 49.0107C96.693 50.8506 97.0726 52.6499 97.3655 54.4098C91.4764 56.7669 85.956 59.8406 80.8804 63.5192C78.2124 61.5676 75.4793 59.3025 72.7788 56.6485C66.5643 50.5372 62.4213 44.2692 59.6991 39.2493C62.7141 35.8787 63.2456 31.0528 60.7186 27.7281C57.8229 23.9235 52.0205 23.5224 47.7583 26.8306C43.5069 30.1399 42.4006 35.905 45.2855 39.7085C47.8559 43.0693 52.6713 43.7685 56.7058 41.6032C60.6318 45.1612 65.7401 50.7728 69.6878 58.8401C71.499 62.5296 72.7571 66.1173 73.6464 69.4628C72.833 70.2189 72.0087 70.999 71.217 71.7946C67.2584 75.8085 63.7119 80.2531 60.6752 85.0626C58.8857 84.5421 57.0311 83.912 55.1332 83.1405C48.9621 80.63 44.1793 77.4293 40.7087 74.6405C42.1837 70.3033 40.7413 65.6241 37.0755 63.5947C32.9217 61.2881 27.4556 63.2781 24.8744 68.0393C22.2823 72.7984 23.5621 78.5273 27.7376 80.8328C31.3925 82.86 36.056 81.5648 38.8867 77.9881C43.0947 79.4587 48.3439 81.8179 53.7558 85.6916C55.3718 86.8487 56.8468 88.0388 58.2241 89.2354C53.9402 97.0353 50.9468 105.656 49.5261 114.808C45.8278 115.127 41.8367 115.28 37.5527 115.147C31.4359 114.957 25.9155 114.233 21.0892 113.29C20.9808 108.504 17.8139 104.498 13.5191 104.042C8.79052 103.54 4.50658 107.511 3.94262 112.91C3.3895 118.309 6.76244 123.091 11.4802 123.591C15.6883 124.037 19.5275 120.938 20.7314 116.446C25.6769 116.547 31.2298 116.994 37.249 118.041C41.4245 118.765 45.2747 119.689 48.8428 120.716C48.6693 122.794 48.5934 124.896 48.5934 127.022C48.5934 132.07 49.0598 137.007 49.9708 141.793C45.8712 144.532 40.2315 147.637 33.041 149.818C26.7398 151.73 21.0676 152.381 16.5451 152.521C14.9182 148.265 10.8837 145.61 6.79495 146.407C2.14225 147.316 -0.81854 152.373 0.200933 157.703C1.22041 163.034 5.82971 166.617 10.4824 165.708C14.5169 164.921 17.2609 161.034 17.2717 156.553C21.9027 155.032 27.3688 153.604 33.5832 152.675C40.7196 151.607 47.1292 151.454 52.5303 151.691C54.6885 158.296 57.7253 164.5 61.467 170.18C59.6992 171.592 57.7361 172.986 55.5128 174.289C51.2722 176.785 47.2051 178.338 43.6695 179.342C41.2835 175.486 36.8152 173.676 32.9542 175.251C28.5618 177.053 26.6205 182.591 28.6378 187.62C29.9067 190.775 32.4336 192.991 35.2318 193.748C36.8803 194.202 38.6264 194.147 40.2641 193.478C40.7413 193.278 41.2076 193.031 41.6306 192.736C44.8408 190.586 46.2074 186.128 44.8517 181.875C48.1921 180.134 52.0965 178.409 56.5865 176.987C59.4823 176.075 62.237 175.409 64.8291 174.914C67.1934 178.004 69.7963 180.903 72.5836 183.579C72.8439 183.835 73.115 184.09 73.3753 184.328C71.4882 188.584 68.6466 193.756 64.3626 198.999C60.1654 204.132 55.8056 207.869 52.129 210.509C48.4524 207.869 43.6261 207.926 40.6653 210.882C37.2815 214.253 37.6069 220.119 41.392 223.984C45.1553 227.84 50.9686 228.24 54.3415 224.868C57.2806 221.942 57.4215 217.131 54.9271 213.393C57.812 209.59 61.5754 205.304 66.38 201.072C71.5532 196.53 76.6506 193.167 81.0973 190.688C86.9755 194.911 93.4719 198.33 100.402 200.777C100.131 203.414 99.6647 206.259 98.8946 209.248C97.2244 215.76 94.73 220.979 92.4633 224.821C88.0058 223.919 83.6025 225.976 82.095 229.913C80.3922 234.384 83.0711 239.596 88.0817 241.556C93.0814 243.516 98.5259 241.476 100.25 236.997C101.736 233.108 99.9141 228.662 96.1073 226.286C97.181 221.656 98.8838 216.181 101.573 210.299C102.897 207.432 104.296 204.817 105.727 202.435C111.074 203.893 116.638 204.786 122.386 205.033C123.319 209.576 124.078 214.66 124.446 220.214C125 228.478 124.555 235.794 123.774 241.834C119.414 242.688 116.15 246.162 116.15 250.315C116.15 255.112 120.499 259 125.889 259C131.258 259 135.607 255.112 135.607 250.315C135.607 246.178 132.364 242.711 128.025 241.842C127.299 235.666 126.908 228.367 127.321 220.214C127.603 214.714 128.221 209.639 129.002 205.048C135.01 204.817 140.834 203.886 146.398 202.331C146.875 203.159 147.341 204.02 147.797 204.906C150.823 210.746 152.45 216.222 153.328 220.604C149.456 222.876 147.482 227.291 148.881 231.228C150.465 235.746 155.866 237.93 160.931 236.112C165.985 234.288 168.804 229.147 167.21 224.629C165.8 220.621 161.386 218.452 156.874 219.282C154.803 215.687 152.395 210.26 151.56 203.311C151.452 202.45 151.376 201.606 151.332 200.777C157.525 198.609 163.36 195.653 168.729 192.035C172.188 194.879 175.832 198.274 179.455 202.307C185.029 208.507 189.085 214.62 192.014 219.815C189.042 223.178 188.532 227.968 191.038 231.275C193.944 235.077 199.736 235.475 203.998 232.167C208.249 228.861 209.356 223.099 206.471 219.29C203.965 216.006 199.291 215.257 195.322 217.258C191.048 212.882 186.309 207.344 181.743 200.538C178.793 196.138 176.353 191.868 174.347 187.858C176.505 186.098 178.565 184.225 180.539 182.24C183.749 178.989 186.689 175.458 189.292 171.681C194.096 173.037 199.638 175.021 205.516 178.001C211.188 180.863 215.917 184.01 219.724 186.942C218.281 191.199 219.648 195.804 223.227 197.86C227.348 200.243 232.847 198.346 235.515 193.637C238.183 188.919 236.99 183.173 232.869 180.789C229.268 178.711 224.594 179.899 221.709 183.389C217.457 181.754 212.295 179.276 206.948 175.475C201.395 171.53 197.198 167.298 194.161 163.648C196.211 159.76 197.946 155.672 199.334 151.415C201.634 151.495 204.074 151.703 206.59 152.085C213.086 153.073 218.498 154.93 222.663 156.778C222.305 161.322 224.843 165.481 228.867 166.525C233.465 167.721 238.28 164.429 239.625 159.17C240.959 153.911 238.324 148.683 233.715 147.487C229.68 146.434 225.461 148.858 223.585 153.041C219.171 152.675 213.499 151.694 207.306 149.272C204.963 148.347 202.794 147.319 200.82 146.243C201.807 142.3 202.501 138.242 202.859 134.082C206.861 133.756 211.113 133.548 215.592 133.54C223.487 133.517 230.667 134.09 236.968 134.935C237.727 139.31 241.057 142.641 245.124 142.77C249.874 142.904 253.855 138.617 253.996 133.19C254.147 127.764 250.427 123.252 245.688 123.116Z" fill="#FFD0D0"/>
</svg>
